PathFileType	3	(X/Y/Z)	Static_01.trc
DataRate	CameraRate	NumFrames	NumMarkers	Units	OrigDataRate	OrigDataStartFrame	OrigNumFrames
200	200	10	32	mm	200	51	400
Frame#	Time	L_ASIS			R_ASIS			L_PSIS			R_PSIS			R_Knee_Med			R_Thigh_Upper			R_Knee_Lat			R_Thigh_Front			R_Thigh_Rear			L_Knee_Med			L_Thigh_Upper			L_Thigh_Front			L_Thigh_Rear			L_Knee_Lat			L_Ankle_Med			L_Shank_Upper			L_Shank_Front			L_Shank_Rear			L_Ankle_Lat			R_Ankle_Med			R_Shank_Upper			R_Shank_Rear			R_Shank_Front			R_Ankle_Lat			R_Heel			R_Toe_Tip			R_Toe_Med			R_Toe_Lat			L_Heel			L_Toe_Tip			L_Toe_Med			L_Toe_Lat			
		X1	Y1	Z1	X2	Y2	Z2	X3	Y3	Z3	X4	Y4	Z4	X5	Y5	Z5	X6	Y6	Z6	X7	Y7	Z7	X8	Y8	Z8	X9	Y9	Z9	X10	Y10	Z10	X11	Y11	Z11	X12	Y12	Z12	X13	Y13	Z13	X14	Y14	Z14	X15	Y15	Z15	X16	Y16	Z16	X17	Y17	Z17	X18	Y18	Z18	X19	Y19	Z19	X20	Y20	Z20	X21	Y21	Z21	X22	Y22	Z22	X23	Y23	Z23	X24	Y24	Z24	X25	Y25	Z25	X26	Y26	Z26	X27	Y27	Z27	X28	Y28	Z28	X29	Y29	Z29	X30	Y30	Z30	X31	Y31	Z31	X32	Y32	Z32
51	0.25	-1227.1549	1002.3144	-1911.2452	-1040.0162	1002.7693	-1709.435	-1307.0713	1046.4663	-1739.5763	-1220.4432	1053.984	-1652.5818	-1099.7556	466.64434	-1688.0892	-1052.9414	826.25776	-1596.2683	-1047.2619	502.94077	-1592.5878	-1004.7178	773.20417	-1633.9242	-1051.8827	760.50523	-1583.7814	-1266.174	466.75493	-1786.1127	-1339.3688	858.48231	-1890.2439	-1321.0126	786.42492	-1910.3011	-1365.9994	792.01046	-1847.5859	-1344.1877	487.62288	-1857.0224	-1300.7684	74.927371	-1799.2371	-1415.6385	359.68558	-1829.6086	-1388.7108	302.92573	-1849.0912	-1416.8592	290.03903	-1809.6273	-1386.2401	65.853759	-1831.3864	-1084.2809	77.519283	-1616.3774	-1076.602	368.40707	-1521.7242	-1107.533	308.08595	-1517.854	-1050.6366	305.08539	-1535.6161	-1075.2868	63.455812	-1523.0604	-1145.9884	22.018454	-1525.2002	-956.18264	42.355888	-1629.5513	-966.67534	17.129138	-1654.2213	-962.99356	18.179939	-1535.4917	-1392.7014	25.477683	-1760.4885	-1264.1508	38.453214	-1938.4803	-1239.2113	15.327205	-1924.4228	-1359.9169	11.175291	-1942.5817
52	0.255	-1226.9627	1002.3033	-1911.2246	-1039.7958	1002.7749	-1709.453	-1306.8893	1046.4688	-1739.5103	-1220.2071	1053.976	-1652.55	-1099.6861	466.66106	-1688.0527	-1052.7046	826.26181	-1596.274	-1047.1512	502.93401	-1592.5692	-1004.516	773.18818	-1633.9419	-1051.6691	760.50031	-1583.7933	-1266.091	466.69481	-1786.1043	-1339.1993	858.48645	-1890.153	-1320.8627	786.41718	-1910.2398	-1365.7786	792.0076	-1847.4921	-1344.0429	487.6262	-1856.9981	-1300.7319	74.916154	-1799.242	-1415.5369	359.6854	-1829.5707	-1388.6249	302.93756	-1849.0737	-1416.7708	290.0569	-1809.5977	-1386.2206	65.865568	-1831.3697	-1084.2788	77.521345	-1616.3796	-1076.5183	368.40537	-1521.7025	-1107.4594	308.09845	-1517.8387	-1050.5741	305.07495	-1535.606	-1075.287	63.452722	-1523.0607	-1145.9887	22.023878	-1525.2015	-956.17758	42.361805	-1629.5534	-966.67819	17.120481	-1654.2279	-962.99538	18.177769	-1535.4942	-1392.6714	25.472423	-1760.4619	-1264.148	38.448676	-1938.4833	-1239.2107	15.317994	-1924.427	-1359.9151	11.174203	-1942.5746
53	0.26	-1226.7756	1002.2923	-1911.205	-1039.5766	1002.7821	-1709.4703	-1306.7149	1046.4738	-1739.4464	-1219.9804	1053.967	-1652.5132	-1099.6197	466.67745	-1688.017	-1052.4714	826.2666	-1596.278	-1047.0435	502.9282	-1592.5502	-1004.3201	773.17089	-1633.9597	-1051.4599	760.49592	-1583.8054	-1266.0329	466.62652	-1786.0914	-1339.0277	858.49022	-1890.0692	-1320.715	786.40985	-1910.1814	-1365.5656	792.00584	-1847.4	-1343.9051	487.62906	-1856.9673	-1300.6993	74.903988	-1799.2484	-1415.4397	359.68553	-1829.5353	-1388.5461	302.94821	-1849.0573	-1416.6897	290.07834	-1809.5661	-1386.203	65.877654	-1831.3531	-1084.2775	77.5221	-1616.3832	-1076.4377	368.40453	-1521.6809	-1107.3894	308.11215	-1517.8225	-1050.5153	305.06501	-1535.5959	-1075.2878	63.450099	-1523.061	-1145.9892	22.029004	-1525.2029	-956.17155	42.369277	-1629.5555	-966.68086	17.112211	-1654.2346	-962.99746	18.175666	-1535.4967	-1392.6409	25.466238	-1760.4336	-1264.1451	38.444525	-1938.4862	-1239.2107	15.308659	-1924.4312	-1359.914	11.171526	-1942.5674
54	0.265	-1226.5941	1002.2809	-1911.1862	-1039.3584	1002.7911	-1709.4866	-1306.5457	1046.4797	-1739.3859	-1219.7627	1053.9571	-1652.4726	-1099.556	466.69365	-1687.9821	-1052.2418	826.272	-1596.28	-1046.9387	502.92339	-1592.531	-1004.1297	773.15251	-1633.9776	-1051.2551	760.49211	-1583.8175	-1265.9943	466.55192	-1786.0746	-1338.8535	858.49296	-1889.9927	-1320.5691	786.40274	-1910.1256	-1365.3608	792.00514	-1847.3099	-1343.7742	487.63091	-1856.9309	-1300.6703	74.890913	-1799.2554	-1415.3471	359.68622	-1829.5028	-1388.4745	302.9574	-1849.0419	-1416.6158	290.10299	-1809.5329	-1386.1873	65.889708	-1831.3368	-1084.2772	77.521539	-1616.3878	-1076.3602	368.40448	-1521.6597	-1107.323	308.12685	-1517.8059	-1050.4598	305.05561	-1535.5858	-1075.2889	63.44806	-1523.0613	-1145.99	22.033878	-1525.2047	-956.16486	42.377802	-1629.5578	-966.6833	17.10432	-1654.241	-962.9997	18.17375	-1535.4993	-1392.6106	25.459564	-1760.4048	-1264.1423	38.440701	-1938.489	-1239.2109	15.299275	-1924.4357	-1359.914	11.167373	-1942.5605
55	0.27	-1226.4182	1002.2687	-1911.1683	-1039.1411	1002.802	-1709.5018	-1306.3793	1046.4848	-1739.3297	-1219.5534	1053.9462	-1652.4292	-1099.4947	466.70969	-1687.9482	-1052.0159	826.27787	-1596.2803	-1046.8363	502.91963	-1592.5118	-1003.9446	773.13337	-1633.9958	-1051.0545	760.48892	-1583.8295	-1265.9665	466.4744	-1786.0553	-1338.6766	858.49418	-1889.9237	-1320.4246	786.39571	-1910.0722	-1365.1643	792.00548	-1847.2225	-1343.6494	487.6312	-1856.8904	-1300.6446	74.876921	-1799.262	-1415.2589	359.68761	-1829.4739	-1388.4098	302.96496	-1849.0275	-1416.5487	290.13042	-1809.4985	-1386.1732	65.901454	-1831.321	-1084.2778	77.519788	-1616.3931	-1076.2856	368.4052	-1521.639	-1107.2602	308.1424	-1517.7897	-1050.4073	305.04683	-1535.5761	-1075.2905	63.446702	-1523.0618	-1145.9912	22.038575	-1525.2069	-956.15789	42.386847	-1629.5604	-966.68543	17.096921	-1654.2469	-963.00201	18.172165	-1535.502	-1392.581	25.452862	-1760.3764	-1264.1395	38.437141	-1938.4917	-1239.2111	15.290045	-1924.4402	-1359.9153	11.161988	-1942.554
56	0.275	-1226.2477	1002.2551	-1911.1514	-1038.9252	1002.8145	-1709.5159	-1306.2138	1046.4878	-1739.2788	-1219.3513	1053.9347	-1652.3846	-1099.4354	466.72549	-1687.9152	-1051.7937	826.28402	-1596.2791	-1046.7359	502.917	-1592.4929	-1003.7643	773.11382	-1634.0143	-1050.858	760.48632	-1583.8413	-1265.9396	466.39797	-1786.0354	-1338.4972	858.49359	-1889.8618	-1320.2812	786.38868	-1910.0207	-1364.9757	792.00677	-1847.1387	-1343.5292	487.62948	-1856.8471	-1300.6225	74.861788	-1799.2673	-1415.1747	359.68972	-1829.4488	-1388.3516	302.97082	-1849.014	-1416.4876	290.16018	-1809.4633	-1386.1606	65.912657	-1831.3056	-1084.2794	77.517048	-1616.3987	-1076.2135	368.40665	-1521.619	-1107.2006	308.1586	-1517.7745	-1050.3572	305.03873	-1535.5669	-1075.2924	63.44608	-1523.0625	-1145.9928	22.043191	-1525.2098	-956.151	42.395981	-1629.5635	-966.68718	17.0902	-1654.252	-963.00428	18.171029	-1535.5049	-1392.5526	25.446552	-1760.3491	-1264.1367	38.433795	-1938.4943	-1239.2112	15.281209	-1924.4449	-1359.9182	11.155751	-1942.5484
57	0.28	-1226.082	1002.2399	-1911.1354	-1038.7113	1002.8285	-1709.5287	-1306.0479	1046.488	-1739.2338	-1219.1552	1053.9226	-1652.3405	-1099.3778	466.74092	-1687.8829	-1051.5754	826.29022	-1596.2765	-1046.6371	502.91552	-1592.4746	-1003.5881	773.09417	-1634.0332	-1050.6655	760.48428	-1583.8528	-1265.9045	466.32648	-1786.0165	-1338.3158	858.49095	-1889.807	-1320.1385	786.38162	-1909.971	-1364.7942	792.00886	-1847.0595	-1343.4128	487.62554	-1856.8024	-1300.6046	74.84504	-1799.2706	-1415.0941	359.69246	-1829.4274	-1388.299	302.97511	-1849.0016	-1416.4319	290.19174	-1809.4274	-1386.1492	65.923099	-1831.291	-1084.2822	77.513517	-1616.404	-1076.1435	368.40875	-1521.6	-1107.1439	308.17524	-1517.7609	-1050.309	305.03136	-1535.5583	-1075.2946	63.446214	-1523.0635	-1145.995	22.04778	-1525.2135	-956.14451	42.404872	-1629.567	-966.68854	17.084367	-1654.2562	-963.00647	18.170407	-1535.5077	-1392.526	25.440994	-1760.3233	-1264.1341	38.430578	-1938.4968	-1239.2111	15.272901	-1924.4496	-1359.9227	11.149163	-1942.5439
58	0.285	-1225.9202	1002.2228	-1911.1204	-1038.4999	1002.8438	-1709.5401	-1305.8809	1046.4849	-1739.1951	-1218.9638	1053.9104	-1652.2986	-1099.3214	466.75576	-1687.8512	-1051.3613	826.29621	-1596.273	-1046.5396	502.91521	-1592.457	-1003.4157	773.07468	-1634.0526	-1050.4767	760.48271	-1583.8639	-1265.8546	466.26291	-1785.9999	-1338.1327	858.48606	-1889.7587	-1319.9965	786.37451	-1909.9227	-1364.6194	792.0115	-1846.9855	-1343.2997	487.61943	-1856.7576	-1300.5923	74.826028	-1799.2717	-1415.0163	359.69567	-1829.4096	-1388.2509	302.97808	-1848.9904	-1416.3808	290.22458	-1809.3912	-1386.1389	65.932592	-1831.2772	-1084.2862	77.509362	-1616.4089	-1076.0753	368.41142	-1521.582	-1107.0897	308.19203	-1517.7494	-1050.2622	305.02474	-1535.5506	-1075.2969	63.447097	-1523.065	-1145.9976	22.052327	-1525.2182	-956.13864	42.413199	-1629.5709	-966.68954	17.079617	-1654.2592	-963.00857	18.170305	-1535.5106	-1392.5016	25.436558	-1760.2997	-1264.1316	38.427375	-1938.4993	-1239.2107	15.265132	-1924.4543	-1359.9284	11.142724	-1942.5407
59	0.29	-1225.7615	1002.2037	-1911.1066	-1038.2919	1002.8599	-1709.55	-1305.7121	1046.4784	-1739.1628	-1218.7758	1053.8984	-1652.2602	-1099.2657	466.76976	-1687.8199	-1051.1515	826.30172	-1596.2689	-1046.4428	502.91598	-1592.4403	-1003.2466	773.05555	-1634.0726	-1050.2914	760.48153	-1583.8746	-1265.7868	466.20869	-1785.9864	-1337.9486	858.47879	-1889.7168	-1319.8548	786.36733	-1909.8758	-1364.4504	792.01434	-1846.9176	-1343.1895	487.61122	-1856.7134	-1300.5869	74.804045	-1799.2705	-1414.9406	359.69929	-1829.3948	-1388.2059	302.98008	-1848.9803	-1416.3332	290.25811	-1809.3549	-1386.1292	65.941016	-1831.2645	-1084.2913	77.504721	-1616.4131	-1076.0083	368.41452	-1521.5653	-1107.0374	308.2087	-1517.7404	-1050.2165	305.01883	-1535.5438	-1075.2993	63.448689	-1523.0669	-1146.0008	22.056754	-1525.2242	-956.13351	42.420673	-1629.5752	-966.69013	17.076101	-1654.2612	-963.01058	18.170676	-1535.5135	-1392.4796	25.433634	-1760.2785	-1264.1293	38.424106	-1938.5019	-1239.2101	15.25787	-1924.459	-1359.9353	11.136796	-1942.5388
60	0.295	-1225.6049	1002.1826	-1911.094	-1038.0876	1002.8765	-1709.5586	-1305.5416	1046.4688	-1739.1368	-1218.5906	1053.8872	-1652.2262	-1099.2103	466.7827	-1687.7887	-1050.9464	826.30647	-1596.2645	-1046.3465	502.91767	-1592.4248	-1003.0801	773.03693	-1634.0933	-1050.1093	760.48067	-1583.8847	-1265.7013	466.16375	-1785.9756	-1337.7642	858.46908	-1889.6805	-1319.7132	786.36003	-1909.8303	-1364.2865	792.01702	-1846.8563	-1343.082	487.60097	-1856.6703	-1300.5895	74.778506	-1799.2672	-1414.8665	359.70341	-1829.3823	-1388.1626	302.98144	-1848.9713	-1416.2882	290.29174	-1809.3187	-1386.1198	65.948314	-1831.2529	-1084.2975	77.499734	-1616.4167	-1075.9422	368.41789	-1521.5498	-1106.9865	308.22496	-1517.7338	-1050.1714	305.01355	-1535.5382	-1075.3017	63.450879	-1523.0692	-1146.0044	22.060971	-1525.2314	-956.12909	42.427092	-1629.5799	-966.69016	17.073908	-1654.2623	-963.01248	18.171436	-1535.5165	-1392.4604	25.432564	-1760.2599	-1264.1271	38.42076	-1938.5045	-1239.2095	15.25106	-1924.4636	-1359.9431	11.131561	-1942.538
